<svg id="Layer_1" xmlns="http://www.w3.org/2000/svg" version="1.1" viewBox="0 0 72.7 20.9" width="100%" height="100%" preserveAspectRatio="none"><defs><style> .st0 { isolation: isolate; } .st1 { fill: #fff; } </style></defs><g class="st0"><g class="st0"><path class="st1" d="M28.3,8.1v7.5h-.8v-6l-2.7,6h-.6l-2.7-6v6h-.8v-7.5h.8l2.9,6.5,2.9-6.5h.8Z"/><path class="st1" d="M34.4,13.8h-3.5l-.7,1.8h-.8l2.8-7.5h.9l2.8,7.5h-.8l-.7-1.8ZM34.2,13.2l-1.5-4.1-1.5,4.1h3Z"/><path class="st1" d="M37.9,15h2.7v.6h-3.5v-7.6h.8v7Z"/><path class="st1" d="M46.1,13.8h-3.5l-.7,1.8h-.8l2.8-7.5h.9l2.8,7.5h-.8l-.7-1.8ZM45.9,13.2l-1.5-4.1-1.5,4.1h3Z"/><path class="st1" d="M53.8,8l-2.4,4.7v3h-.8v-3l-2.5-4.7h.9l2,4,2-4h.9Z"/><path class="st1" d="M55.9,15.5c-.4-.2-.7-.4-.9-.7-.2-.3-.3-.7-.3-1h.8c0,.4.2.7.5,1,.3.3.7.4,1.3.4s.9-.1,1.2-.4c.3-.3.5-.6.5-1s0-.6-.2-.8c-.2-.2-.4-.3-.6-.4-.2,0-.6-.2-1-.3-.5-.1-.9-.3-1.2-.4s-.6-.3-.8-.6c-.2-.3-.3-.7-.3-1.1s.1-.7.3-1.1c.2-.3.5-.6.9-.7.4-.2.8-.3,1.3-.3.7,0,1.3.2,1.7.5s.7.8.7,1.3h-.8c0-.3-.2-.6-.5-.8-.3-.2-.7-.4-1.2-.4s-.8.1-1.1.4c-.3.2-.5.6-.5,1s0,.6.2.8c.2.2.4.3.6.4.3.1.6.2,1,.3.5.1.9.3,1.2.4.3.1.6.3.8.6s.3.6.3,1.1,0,.7-.3,1c-.2.3-.5.6-.8.8-.4.2-.8.3-1.3.3s-.9,0-1.3-.3Z"/><path class="st1" d="M61.9,8v7.6h-.8v-7.6h.8Z"/><path class="st1" d="M68.1,13.8h-3.5l-.7,1.8h-.8l2.8-7.5h.9l2.8,7.5h-.8l-.7-1.8ZM67.9,13.2l-1.5-4.1-1.5,4.1h3Z"/></g></g><path class="st1" d="M18.1,10.1c0,0-4.7-.5-6.6-1.1-.8-.2-1.7-.6-2.6-1v-2.1c.6-.1,1.3-.2,2.1-.3.1,0,.3,0,.4,0v3h.6v-3c3.5-.2,4.2,0,4.2,0h.2c0,0,0-.7,0-.7h0v-1l-2.7-.5-.6.6c-.5,0-3.6.4-4.8.5-2.6.3-3.8.9-4,1.6,0,.1-.2.5,0,1.1.1.3.4.7.8,1.1h0v2.5h.6v-2c1,.7,2.5,1.5,5.1,2.3v.4l-1,.6v.4l-.5.7-1.4.7h-1.2l-2.1,1.3.6.6v.8c0,0,0,.9,0,.9h.6v-1.1l.9-.5h1.8c0,0,.9-.5.9-.5v1.1h.6v-1.4l.6-.3h0c.1-.2,1.5-2,4.1-2.2.6,0,1.1,0,1.5-.1v2.1h.6v-2.2h0c.4,0,.8-.2,1-.5v-.2h.5v-1.5h-.2,0ZM15.4,4.9l.3.2h-.4v-.2h.1ZM15.7,4.9h.3v.3l-.3-.3h0ZM15.1,5.1h-.2l-.4-.2c.2,0,.5,0,.7,0v.2c0,0,0,0,0,0ZM11.6,5.1h.4c-.2.1-.5.2-.7.2v-.2h.3ZM13,5h.4c-.2.1-.4.2-.7.2v-.2h.3ZM14.1,4.9l.4.2h-.5v-.2h.1,0ZM13.8,5.1h-.4c.1-.1.3-.1.4-.1h0c0,.1,0,.1,0,.1ZM12.5,5.2h-.4c.2-.1.3-.1.5-.2v.2h0ZM11.1,5.3h-.2l-.4-.2c.2,0,.5,0,.7,0v.2c-.1,0-.1,0-.1,0ZM10.1,5.2l.4.2c-.3,0-.5,0-.7,0v-.2c.2,0,.3,0,.3,0h0ZM9.6,5.4c0,0-.2,0-.3,0h-.5c.3-.2.6-.2.9-.3v.2c-.1,0-.1,0-.1,0ZM8,5.7v-.2c.2,0,.2,0,.3,0h.5c-.3.1-.5.2-.8.3h0ZM7.8,5.8c0,0-.1,0-.2,0h-.4c.2-.2.5-.2.7-.3v.2c-.1,0-.1,0-.1,0ZM7.3,5.9c-.2,0-.3.1-.5.2v-.3c0,0,.5,0,.5,0h0ZM6.6,6.3s0,0,0,0h-.5c.2-.2.4-.3.7-.4v.4c0,0-.1,0-.1,0ZM5.8,6.4h.6c0,.2-.1.3-.2.3-.2-.1-.3-.2-.4-.3,0,0,0,0,0,0h0ZM8.3,6v1.7c-.7-.3-1.4-.6-1.8-.9.1-.2.6-.5,1.8-.8h0ZM8.7,7.9c0,0-.1,0-.2,0v-1.8c0,0,.1,0,.2,0v2ZM11.8,5.6v2.8h-.2v-2.8h.2ZM4.8,7.3c.1.1.3.3.5.4v.3c-.2-.3-.4-.5-.5-.7h0ZM9.7,10.2v-.4c.2,0,.5.2.7.3l-.6.2s0,0,0,0ZM9.5,9.7v.4c-.3-.1-.6-.2-.9-.3h.8c0-.1,0-.1.1-.1h0ZM8.3,9.7s0,0,0,0v-.5c.3.1.6.3.9.4h-.8c0,.1,0,.1,0,.1ZM6.5,8.4v.4c-.2-.1-.4-.3-.6-.4h.5c0,0,0,0,0,0ZM8,9.1v.5c-.3-.1-.6-.3-.9-.5h.8c0,0,0,0,.1,0h0ZM6.8,9s0,0,0,0v-.4c.3.1.5.3.8.4h-.8q0,0,0,0ZM5.7,8.3s0,0-.1,0v-.3c.1.1.3.2.6.4h-.5ZM5.5,10.5h-.2v-2.2c0,0,.1.1.2.2v2ZM10.1,10.4h.6c0-.1,0-.1,0-.1v.3c-.2,0-.4-.1-.6-.2h0ZM6.8,14.1h1.2l1.5-.8.3-.4h.3v-.8l.7-.4h0c0,.1.4.1.4.1v-1.9h-.1c-6-2.3-6.4-3.1-6.3-3.8,0-.3.6-.9,3.7-1.3,1.4-.2,4.8-.5,4.9-.5h0l.5-.5,2.2.4v.3c-.8,0-4.2.1-5.9.3-1.5.1-4.5.8-4.8,1.5,0,.1,0,.3,0,.3.3.3,1.5.9,2.8,1.5h0c0,.1.3.1.3.1,1,.4,2,.8,2.8,1.1,1.8.6,5.7,1,6.6,1.1h0c-.7.2-3.5.6-4.2.7h0c-.8.1-2.6.4-3.4,2.3l-2,1h-1.6l-1.4.8-.2-.2,1.6-1h0ZM17.3,11.4v-.4c.3,0,.5,0,.6,0v.4c-.1,0-.4,0-.6,0h0ZM15.1,11.6v-.3c.3,0,.6,0,.9-.1v.4c-.3,0-.6,0-.9.1h0ZM16,11.9v.2c-.3,0-.6,0-.9,0h0c.3-.2.6-.2.9-.3ZM10.6,13.7h0c.2-.5.4-.8.6-1.1v.4c-.3.4-.5.8-.7,1.1v-.3h0ZM12.7,11.7v.3h0c-.2,0-.5.1-.7.3v-.3c.2-.1.5-.2.7-.3h0ZM11.8,12.4c-.1.1-.3.2-.4.4v-.3c.1-.1.3-.2.4-.3v.3ZM11.4,13.3c.1-.2.3-.3.4-.5v.3c-.1,0-.3.2-.4.3h0ZM11.9,12.7c.2-.2.5-.3.7-.4v.3c-.3.1-.5.2-.7.4v-.3ZM12.8,12.3c.3,0,.6,0,1-.1h0c-.4.2-.7.3-1,.5v-.3ZM12.8,11.9v-.3c.3,0,.6-.1.9-.2h0s0,0,0,0v.3c-.4,0-.7.1-1,.1h0ZM14,11.4c.2,0,.5,0,.9-.1v.3c-.3,0-.6,0-.9.1v-.3h0ZM16.2,11.1c.3,0,.6,0,.9-.1v.4c-.3,0-.6,0-.9.1v-.4ZM5.7,17.2h-.2v-.7h.2c0-.1,0,.7,0,.7h0ZM6.7,15.4l-1.1.6v-.4s1.2-.8,1.2-.8h1.3v.6h-1.5ZM8.5,15.3v-.6l1.8-1v.6s0,0,0,.1l-.8.4h0l-.9.5h0ZM9.8,16.2h-.2v-1h.2c0-.1,0,1,0,1ZM14.6,12.2c-.2,0-.4,0-.6,0h0c.3-.2.6-.2.9-.3h0c0,.1-.2.1-.3.2ZM16.5,14.4h-.2v-2h.2v2h0ZM16.8,12c-.2,0-.4,0-.6,0v-.2c.3,0,.6,0,.9-.1v.2c0,0-.2,0-.3,0h0ZM17.3,11.8h0c0-.1.1-.1.2-.1,0,0-.1,0-.2.1Z"/></svg>