<svg id="Layer_1" xmlns="http://www.w3.org/2000/svg" xmlns:xlink="http://www.w3.org/1999/xlink" version="1.1" viewBox="0 0 703.5 414.4" width="100%" height="100%" preserveAspectRatio="none"><defs><style> .st0 { fill: none; } .st1 { fill: #fff; } .st2 { clip-path: url(#clippath); } </style><clipPath id="clippath"><rect class="st0" width="703.5" height="414.4"/></clipPath></defs><g class="st2"><path class="st1" d="M686.2,292.3c-2.3-.5-4.5-1-5.7-1.6-1.1-.5-1.1-1.1-1.1-1.3,0-2.8,4.7-3.2,7.5-3.2,4.4,0,8.9,1.6,9.9,2.3l1.1.8v-5.4l-.7-.3c-3.5-1.4-7.2-2.2-11-2.2-7.5,0-12.4,3.2-12.4,8.2s7.9,6.9,13.1,7.8c1.6.3,3,.5,3.8.8,1.8.7,2.6,1.3,2.6,2.2,0,1.8-2.1,3.8-7.9,3.8s-9.3-1.6-10.4-2.4l-1.2-.9v5.3l.3.2c1,.7,6.2,2.3,12.1,2.3,11.1,0,12.7-5.6,12.7-8.9,0-5-7.1-6.5-12.8-7.7M630.1,292.5c.5-4,3.7-6.4,8.8-6.4s8.3,2.3,8.7,6.4h-17.4ZM638.8,281.6c-7.1,0-14.3,4-14.3,13s4.4,14.3,14.3,14.3,11-1.7,12.3-2.3l.4-.2v-5.1l-1.1.7c-.5.3-5.1,2.4-10.4,2.4s-9.5-2.2-9.9-7.5h23v-2.2c0-8.1-5.3-13-14.2-13M602.5,301.9c-.5.4-5.1,2.3-9.1,2.3-6.9,0-9.7-2.8-9.7-9.5s3.2-8.3,9.7-8.3,8,1.7,8.7,2.3l1.2.9v-5.4l-.3-.2c-1-.6-5-2.3-10.7-2.3-9,0-14.2,4.7-14.2,13s4.2,14.3,14.2,14.3,10.4-1.8,11.1-2.4l.3-.2v-5.2s-1.2.9-1.2.9ZM542.3,281.6c-7.5,0-13.9,2.5-14,2.5l-.5.2v24h5.5v-20.4c3.8-1.3,6.9-1.6,8.8-1.6,5.6,0,7.9,1.8,7.9,6.3v15.7h5.5v-17.8c0-4.1-2.3-8.9-13.4-8.9M482.6,292.5c.5-4,3.7-6.4,8.8-6.4s8.3,2.3,8.7,6.4h-17.4ZM491.4,281.6c-7.1,0-14.3,4-14.3,13s4.4,14.3,14.3,14.3,11-1.7,12.3-2.3l.4-.2v-5.1l-1.1.7c-.5.3-5.1,2.4-10.4,2.4s-9.6-2.2-9.9-7.5h23v-2.2c0-8.1-5.3-13-14.2-13M449.1,302.6c-1.2.5-4.2,1.6-8.7,1.6-6.8,0-9.7-2.9-9.7-9.6s3.4-8.3,9.7-8.3,7.2,1.2,8.7,1.8v14.5ZM449.1,283.4c-1.7-.7-5.4-1.8-9.6-1.8-8.8,0-14.4,5.1-14.4,13s4.7,14.3,15.3,14.3,11.9-1.8,13.9-2.8l.4-.2v-33.8h-5.5v11.4ZM397,308.3h5.5v-26.1h-5.5v26.1ZM396.9,278.7h5.8v-5.4h-5.8v5.4ZM362.3,292.3c-2.3-.5-4.5-1-5.7-1.6-1.1-.5-1.1-1.1-1.1-1.3,0-2.8,4.7-3.2,7.5-3.2,4.4,0,9,1.6,9.9,2.3l1.1.8v-5.4l-.7-.3c-3.5-1.4-7.2-2.2-11-2.2-7.5,0-12.4,3.2-12.4,8.2s7.9,6.9,13.1,7.8c1.6.3,3,.5,3.8.8,1.8.7,2.6,1.3,2.6,2.2,0,1.8-2.1,3.8-7.9,3.8s-9.3-1.6-10.4-2.4l-1.2-.9v5.3l.3.2c1,.7,6.2,2.3,12.1,2.3,11.1,0,12.7-5.6,12.7-8.9,0-5-7.1-6.5-12.8-7.7M306.2,292.5c.5-4,3.7-6.4,8.8-6.4s8.3,2.3,8.7,6.4h-17.4ZM314.9,281.6c-7.1,0-14.3,4-14.3,13s4.4,14.3,14.3,14.3,11-1.7,12.3-2.3l.4-.2v-5.1l-1.1.7c-.5.3-5.1,2.4-10.4,2.4s-9.6-2.2-9.9-7.5h23v-2.2c0-8.1-5.3-13-14.2-13M275.8,281.6c-4.6,0-10.8,1.8-11.8,2.2l-.5.2v24.3h5.5v-20.7c2.9-.8,5.7-1.3,8.2-1.3.4,0,.8.1,1.2.1.5,0,1,0,1.3.2l1,.3v-4.7l-.5-.2c-.4-.2-3.3-.4-4.5-.4M199.8,308.3h5.5v-36.3h-5.5v36.3ZM154.6,292.5c.5-4,3.7-6.4,8.8-6.4s8.3,2.3,8.7,6.4h-17.4ZM163.3,281.6c-7.1,0-14.3,4-14.3,13s4.4,14.3,14.3,14.3,11-1.7,12.3-2.3l.4-.2v-5.1l-1.1.7c-.5.3-5.1,2.4-10.4,2.4s-9.6-2.2-9.9-7.5h23v-2.2c0-8.1-5.3-13-14.2-13M123.4,303.9c-2.4,0-3.8-1.1-3.8-2.9v-14.2h8.1v-4.7h-8.1v-5.8h-5.5v25.4c0,6.1,5.1,6.9,9.5,6.9h1.4c1-.2,2.2-.4,3-.5h.6v-5l-.9.2c-1,.2-3.5.6-4.3.6M75.9,304.2c-7,0-10-2.9-10-9.6s3.2-8.3,10-8.3,10,2.6,10,8.3-3.2,9.6-10,9.6M75.9,281.6c-10.2,0-15.6,4.5-15.6,13s4.8,14.3,15.6,14.3,15.7-4.7,15.7-14.3-5.1-13-15.7-13M25.8,281.6c-3.5,0-8,1.2-10.2,1.9v-11.5h-5.5v36.3h5.5v-20.4c1.4-.5,5.6-1.6,8.8-1.6,5.6,0,7.9,1.8,7.9,6.3v15.7h5.5v-17.8c0-5.9-4.1-8.9-12.1-8.9"/><path class="st1" d="M681.1,177.3h21.7V46.9h-21.7v130.5ZM680.4,20.9h23.1V0h-23.1v20.9ZM558.2,55.3v122.1h21.7v-108.8c3.6-1,24.3-7.6,47.9-7.6,4.6.8,11.1.8,14,1.8v-17.1c-1.5-.5-15.7-1.8-22.6-1.8-23.6,0-55.9,9.4-61,11.5M432.7,163.3c-20.7,0-42.2-6.9-49.9-10.5v-82c5.5-2.8,21.9-9.7,49.9-9.7s54.9,15,54.9,47.6-18.6,54.5-54.9,54.5M433,43.8c-31.8,0-62.6,9.7-71.8,13.2v174.5h21.7v-63.7c4.6,4.1,26.7,12.5,54.7,12.5,42.4,0,72.8-18.3,72.8-71.6s-27.9-65-77.3-65M287.4,158c-4.6,2-26.5,6.1-54.7,6.1s-47.5-8.1-47.5-24.2,22.2-27.3,65.1-27.3h37.1v45.4ZM237.1,43.8c-27.7,0-55.9,8.2-62.6,11.7v17.8c2.6-1.3,31.3-13,57.6-13,41.9,0,55.4,11,55.4,30.1v7.4h-44.8c-43.6,0-79,11.7-79,43.1s25.1,39.5,68.4,39.5,67.7-5.6,76.6-9.2v-79c0-30.6-16.4-48.4-71.6-48.4M22.2,109.1c0-32.9,19.3-47.9,54.9-47.9s43.9,9.2,48.7,13v-18.6c-5.3-3.3-26.3-11.7-54.5-11.7C29.9,43.8,0,63.7,0,108.8s20.5,71.6,71.3,71.6,53.5-9.4,56.1-11.7v-18.3c-2.9,2.3-27.9,13-50.4,13-36.9,0-54.9-15.3-54.9-54.3"/><g><path class="st1" d="M439.8,226.6c-.9-.6-1.8-.9-3.4-1-.7,0-1.1,0-1.7,0s-.2,0-.2.3v10.2c0,2.8.1,3.6,1.4,4.1,1.1.5,2,.5,3,.5,1.8,0,4.9-1,4.9-5.5s-.9-6.3-4-8.6M434.5,223.1c0,.3.1.4.3.5.4,0,1,.1,1.9.1,1.3,0,2.2-.2,2.9-.8,1-.9,1.7-2.4,1.7-4.6s-1.6-6.7-5.1-6.7-.9,0-1.3,0c-.3,0-.4.3-.4.7v10.6ZM429.6,222.4c0-6.6,0-7.7,0-9.1,0-1.5-.4-2.2-1.7-2.5-.3,0-1-.1-1.6-.1s-.7,0-.7-.4.3-.4.9-.4c2.2,0,4.7.1,5.5.1,2,0,3.6-.1,5-.1,7.4,0,8.7,4.2,8.7,6.5,0,3.5-1.9,5.6-4.2,7.5,3.3,1.2,7.4,4.3,7.4,9.3s-3.4,9.4-10.9,9.4-4.7-.3-5.9-.3-3.5.1-5.1.1-.8-.1-.8-.4.2-.3.6-.3,1.1,0,1.5-.2c.8-.2,1-1.1,1.2-2.4.2-1.8.2-5.2.2-9.2v-7.6Z"/><path class="st1" d="M465.8,231.3c0-2.3-.4-3.3-.9-4.5-.3-.7-5.7-10.2-7.2-12.4-1-1.6-2-2.7-2.8-3.1-.5-.3-1.2-.6-1.7-.6s-.6,0-.6-.4.3-.4.8-.4c.8,0,3.8.1,5.1.1s2.5-.1,4.3-.1.6.1.6.4-.3.3-.9.5c-.4,0-.6.4-.6.8s.2.9.5,1.5c.6,1.3,6.3,11.7,6.9,12.9.4-1,5.5-10.5,6.1-11.8.4-.9.6-1.7.6-2.2s-.2-.9-.8-1.1c-.4-.1-.7-.2-.7-.4s.2-.4.7-.4c1.3,0,2.6.1,3.8.1s3.6-.1,4.4-.1.7,0,.7.3-.4.4-.8.4-1.2.2-1.8.5c-.8.4-1.3.9-2.2,2.1-1.3,1.7-7,11.8-7.8,13.7-.6,1.5-.6,2.9-.6,4.3v3.5c0,.7,0,2.5.1,4.3,0,1.3.5,2.2,1.7,2.4.6,0,1.5.2,2,.2s.6.1.6.3c0,.3-.3.4-.8.4-2.6,0-5.1-.1-6.2-.1s-3.6.1-5.1.1-.9,0-.9-.4.2-.3.6-.3,1.1,0,1.4-.2c.8-.2,1.2-1.1,1.3-2.4.1-1.8.1-3.6.1-4.3v-3.5Z"/><path class="st1" d="M516,227.9c0,4.8,0,8.6.2,10.7.1,1.4.4,2.6,1.8,2.8.7.1,1.7.2,2.4.2s.8.1.8.4c0,.4-.3.5-1.1.5-3,0-6-.1-7.2-.1s-4.2.1-6,.1-1,0-1-.5.2-.4.7-.4,1.3-.1,1.7-.2c.9-.2,1.2-1.3,1.4-2.8.2-2.1.2-5.9.2-10.7v-8.8c0-7.6,0-9,0-10.7,0-1.7-.5-2.5-2-2.9-.4,0-1.2-.1-1.8-.1s-.8-.1-.8-.4.4-.5,1.1-.5c2.5,0,5.5.1,6.8.1s11.4,0,12.5,0c.9,0,1.5,0,1.9-.2.3,0,.5-.3.8-.3s.3.2.3.5c0,.4-.2.9-.4,2.3,0,.5-.2,3.5-.3,4.1,0,.4-.1.7-.5.7s-.4-.2-.5-.8c0-.4,0-1.2-.3-1.9-.3-.7-1.3-1.5-3.2-1.5h-7.3c-.3-.1-.4,0-.4.6v12.6c0,.3,0,.5.3.5h6.1c.8,0,1.5,0,2.1,0,.9,0,1.6-.3,2.1-.9.3-.3.3-.5.6-.5s.3.1.3.4-.2,1.6-.4,3.1c0,1-.2,3.3-.2,3.7s0,.9-.5.9-.4-.3-.4-.7,0-.9-.3-1.5c-.2-.7-.9-1.6-2.4-1.8-1.2-.2-6.2-.2-7-.2s-.3.1-.3.5v4.1Z"/><path class="st1" d="M546.5,225.8c0,.5,0,.6.4.8.9.3,2.1.4,3.1.4,1.6,0,2.1-.2,2.9-.7,1.2-1,2.4-2.9,2.4-6.5,0-6.1-3.8-7.9-6.2-7.9s-1.7,0-2.2.2c-.3,0-.4.3-.4.6v13.1ZM541.7,222.4c0-6.6,0-7.7,0-9.1,0-1.5-.4-2.2-1.7-2.5-.3,0-1-.1-1.6-.1s-.7,0-.7-.4.3-.4.9-.4c2.2,0,4.7.1,5.6.1,1.4,0,4.5-.1,5.7-.1,2.6,0,5.3.3,7.5,1.8,1.1.8,2.7,3,2.7,5.9s-1.3,6.1-5.4,9.6c3.6,4.8,6.4,8.7,8.8,11.3,2.3,2.5,3.9,2.8,4.6,2.9.5,0,.8.1,1.1.1s.5.1.5.3c0,.3-.3.4-.8.4h-3.9c-2.3,0-3.3-.2-4.3-.8-1.8-1-3.3-3-5.6-6.3-1.6-2.4-3.5-5.3-4-5.9-.2-.3-.4-.3-.7-.3h-3.5c-.2-.1-.3,0-.3.3v.6c0,4,0,7.4.2,9.2.1,1.3.3,2.2,1.6,2.4.6,0,1.5.2,2,.2s.5.1.5.3c0,.3-.3.4-.8.4-2.4,0-5.4-.1-6-.1s-3.3.1-5,.1-.8-.1-.8-.4.2-.3.7-.3,1.1,0,1.5-.2c.8-.2,1-1.1,1.2-2.4.2-1.8.2-5.2.2-9.2v-7.6Z"/><path class="st1" d="M590.5,229.1c.2,0,.3-.1.2-.3l-3.7-10.6c0-.2,0-.4-.2-.4s-.2.2-.2.4l-3.8,10.6c0,.2,0,.3.2.3h7.5ZM582.2,231.2c-.2,0-.3,0-.4.3l-2.2,6.2c-.4,1.1-.6,2.1-.6,2.6,0,.8.4,1.3,1.6,1.3h.6c.5,0,.6,0,.6.3s-.3.4-.7.4c-1.3,0-3.1-.1-4.3-.1s-2.7.1-4.8.1-.8,0-.8-.4.2-.3.5-.3.9,0,1.2,0c1.9-.2,2.6-1.7,3.5-3.9l10.2-27c.5-1.2.7-1.7,1.1-1.7s.6.4,1,1.4c1,2.4,7.5,19.9,10.1,26.5,1.5,3.9,2.7,4.5,3.6,4.7.6.1,1.2.2,1.7.2s.5,0,.5.3-.4.4-1.9.4-4.4,0-7.7,0c-.7,0-1.2,0-1.2-.4s.2-.3.6-.4c.3,0,.6-.5.4-1l-3.3-9.1c0-.2-.2-.3-.4-.3h-9.1Z"/><path class="st1" d="M610.5,242c-.7-.3-.8-.5-.8-1.5,0-2.4.2-4.9.2-5.6,0-.7.2-1.1.5-1.1s.4.4.4.7c0,.6.2,1.5.4,2.2.9,3.2,3.3,4.3,5.8,4.3,3.7,0,5.5-2.6,5.5-4.9s-.6-4.1-4-6.9l-1.9-1.5c-4.5-3.7-6-6.7-6-10.2s3.7-8.1,9.4-8.1,4.4.4,5.4.7c.4,0,.6.2.6.5,0,.5-.2,1.8-.2,5.2s-.1,1.3-.5,1.3-.4-.3-.4-.8-.2-1.7-1.1-2.9c-.6-.8-1.8-2.1-4.4-2.1s-4.9,1.8-4.9,4.4,1,3.5,4.3,6.2l1.1.9c4.9,4,6.7,6.9,6.7,11s-.9,5.5-3.8,7.5c-2,1.4-4.3,1.8-6.5,1.8s-4.2-.3-5.9-1.1"/><path class="st1" d="M640.1,222.4c0-6.6,0-7.7,0-9.1,0-1.5-.4-2.2-1.8-2.5-.3,0-1-.1-1.6-.1s-.7,0-.7-.4.3-.4.9-.4c2.2,0,4.7.1,5.9.1s9.4,0,10.2,0c.8,0,1.4-.2,1.8-.3.2,0,.4-.2.7-.2s.2.2.2.4-.2.8-.3,2.8c0,.4-.1,2.3-.2,2.8,0,.2-.1.5-.4.5s-.4-.2-.4-.6,0-1-.2-1.6c-.3-.8-.7-1.3-2.7-1.5-.7,0-5-.2-5.8-.2s-.3.1-.3.4v10.9c0,.3,0,.5.3.5.9,0,5.6,0,6.5,0,1,0,1.6-.2,2-.6.3-.4.5-.6.6-.6s.3,0,.3.3-.2.9-.3,3.2c0,.9-.1,2.6-.1,2.9s0,.8-.4.8-.4-.2-.4-.4c0-.4,0-1-.2-1.5-.2-.8-.8-1.5-2.3-1.7-.8,0-4.8-.1-5.8-.1s-.3.2-.3.4v3.4c0,1.5,0,5.4,0,6.7,0,3,.7,3.6,4.9,3.6s2.8,0,3.8-.5c1.1-.5,1.5-1.4,1.8-3.2,0-.5.2-.7.5-.7s.3.4.3.8c0,1-.3,3.9-.5,4.8-.3,1.1-.6,1.1-2.2,1.1-6.1,0-8.9-.3-11.3-.3s-3.5.1-5.1.1-.8-.1-.8-.4.2-.3.6-.3,1.1,0,1.5-.2c.8-.2,1-1.1,1.2-2.4.2-1.8.2-5.2.2-9.2v-7.6Z"/><path class="st1" d="M674.7,225.8c0,.5,0,.6.4.8.9.3,2.1.4,3.1.4,1.6,0,2.2-.2,2.9-.7,1.2-1,2.4-2.9,2.4-6.5,0-6.1-3.8-7.9-6.2-7.9s-1.7,0-2.2.2c-.3,0-.4.3-.4.6v13.1ZM670,222.4c0-6.6,0-7.7,0-9.1,0-1.5-.4-2.2-1.7-2.5-.3,0-1-.1-1.6-.1s-.7,0-.7-.4.3-.4.9-.4c2.2,0,4.7.1,5.6.1,1.4,0,4.5-.1,5.7-.1,2.6,0,5.3.3,7.5,1.8,1.1.8,2.8,3,2.8,5.9s-1.3,6.1-5.4,9.6c3.6,4.8,6.4,8.7,8.8,11.3,2.3,2.5,3.9,2.8,4.6,2.9.4,0,.8.1,1.1.1s.5.1.5.3c0,.3-.3.4-.8.4h-3.9c-2.3,0-3.3-.2-4.4-.8-1.8-1-3.3-3-5.6-6.3-1.6-2.4-3.5-5.3-4-5.9-.2-.3-.5-.3-.7-.3h-3.5c-.2-.1-.3,0-.3.3v.6c0,4,0,7.4.2,9.2.1,1.3.4,2.2,1.6,2.4.6,0,1.5.2,2,.2s.5.1.5.3c0,.3-.3.4-.8.4-2.4,0-5.4-.1-6-.1s-3.3.1-5,.1-.8-.1-.8-.4.1-.3.6-.3,1.1,0,1.5-.2c.8-.2,1-1.1,1.2-2.4.2-1.8.2-5.2.2-9.2v-7.6Z"/></g><path class="st1" d="M639.6,394.7l4.2-10.3,4.1,10.3h-8.3ZM648.4,377.2h-9.4l-12.4,28.2h8.7l2.3-5.7h12.2l2.3,5.7h8.7l-12.4-28.2ZM622.8,377.2h-8.5v28.2h8.5v-28.2ZM607.4,393.2c-.7-1.1-1.8-2-3.1-2.8-1.3-.8-3-1.7-5.2-2.7-1.2-.6-2.1-1.1-2.5-1.5-.5-.4-.7-.9-.7-1.4s.2-1.1.7-1.5c.5-.4,1.2-.6,2.3-.6,1.6,0,3.1.3,4.5,1,1.4.7,2.7,1.4,3.8,2.2v-6.6c-.3-.2-.9-.5-1.8-.9-.9-.4-2-.7-3.3-1-1.3-.3-2.8-.5-4.3-.5-2.2,0-4.1.4-5.6,1.1-1.5.7-2.7,1.7-3.4,2.9-.7,1.2-1.1,2.6-1.1,4.1s.4,2.9,1.1,4.1c.7,1.2,1.7,2.1,2.9,2.9,1.2.8,2.5,1.5,4.1,2.1,1.4.6,2.5,1.1,3.2,1.6.7.5,1.1,1.2,1.1,1.9s-.2.9-.6,1.3c-.4.5-1.4.7-2.8.7s-3.1-.3-4.4-.9c-1.4-.6-2.8-1.3-4.2-2.2v6.9c1.5.7,3,1.2,4.4,1.5,1.4.3,2.5.6,3.4.6.8,0,1.6.1,2.1.1,2.1,0,3.9-.3,5.5-1,1.6-.7,2.9-1.7,3.8-3,.9-1.3,1.4-2.8,1.4-4.6s-.4-2.9-1.1-4M577.3,377.2l-6.5,8.9-6.5-8.9h-8.8l11.2,15.4v12.7h8.5v-12.9l11-15.3h-9ZM538,394.7l4.2-10.3,4.1,10.3h-8.3ZM546.8,377.2h-9.4l-12.4,28.2h8.7l2.3-5.7h12.2l2.3,5.7h8.7l-12.4-28.2ZM524,398.6h-12.9v-21.4h-8.5v28.2h21.4v-6.7ZM477.6,394.7l4.2-10.3,4.1,10.3h-8.3ZM486.5,377.2h-9.4l-12.4,28.2h8.7l2.3-5.7h12.2l2.3,5.7h8.7l-12.4-28.2ZM460.8,377.2h-7.7l-8.7,10.6-8.7-10.6h-7.7v28.2h8.3v-16.3l7.7,9.4h.7l7.7-9.4v16.3h8.5v-28.2ZM406.2,376.8l-15.3,28.9h5.5l15.3-28.9h-5.5ZM374.8,377.2h-8.5v13.4c0,1.9-.3,3.4-.8,4.6-.5,1.2-1.3,2.1-2.2,2.6-1,.6-2.1.8-3.3.8s-2.4-.3-3.4-.8c-.9-.6-1.7-1.5-2.2-2.7-.5-1.2-.8-2.7-.8-4.6v-13.3h-8.5v15.5c0,3.1.8,5.7,2.3,7.6,1.5,2,3.4,3.3,5.7,4.1,2.3.8,4.6,1.2,7,1.2s3.4-.2,5.1-.6c1.7-.4,3.3-1.1,4.8-2.1,1.5-1,2.7-2.3,3.6-4,.9-1.7,1.4-3.7,1.4-6.2v-15.5ZM329.5,388.7c-.8.5-2.2.7-4.3.7h-1.8v-6.8h1.8c1.9,0,3.3.3,4.2.8.9.5,1.3,1.4,1.3,2.7s-.4,2.2-1.1,2.6M339.3,399.2c-1-2.2-1.8-3.7-2.4-4.4-.6-.7-1.3-1.4-2.3-1.9.8-.4,1.5-.8,2.1-1.3.6-.4,1.2-1.2,1.7-2.1.6-1,.8-2.2.8-3.6s-.3-2.5-1-3.9c-.7-1.4-1.7-2.5-3.2-3.5-1.5-.9-3.4-1.4-5.7-1.4h-14.4v28.2h8.5v-11h1c1,0,1.8.1,2.4.3.6.2,1.2.8,1.9,1.6.6.9,1.4,2.2,2.2,4l2.2,5h9.1l-2.8-6.1ZM307.9,377.2h-8.5v10.3h-12.8v-10.3h-8.5v28.2h8.5v-11h12.8v11h8.5v-28.2ZM253.2,394.7l4.2-10.3,4.1,10.3h-8.3ZM262,377.2h-9.4l-12.4,28.2h8.7l2.3-5.7h12.2l2.3,5.7h8.7l-12.4-28.2ZM225.5,400.6h-3.5v-7.2h3.5c3.5,0,5.2,1.2,5.2,3.6s-1.7,3.6-5.2,3.6M228,388c-.9.4-2.3.7-4.2.7h-1.8v-6.7h1.8c1.9,0,3.3.2,4.2.7.9.4,1.3,1.3,1.3,2.7s-.4,2.2-1.3,2.7M237.7,392.9c-1-1.2-2.5-2.1-4.4-2.9.6-.2,1.2-.6,1.8-1.2.6-.6,1.1-1.3,1.5-2.2.4-.9.6-1.8.6-2.9s-.2-1.8-.6-2.6c-.4-.8-1-1.5-1.8-2.1-.8-.6-1.8-1.1-3.2-1.4-1.3-.3-2.8-.5-4.6-.5h-13.6v28.2h16.3c3,0,5.3-.7,7-2.2,1.7-1.4,2.5-3.4,2.5-5.8s-.5-3.3-1.5-4.5M184.6,388.7c-.8.5-2.2.7-4.3.7h-1.8v-6.8h1.8c1.9,0,3.3.3,4.2.8.9.5,1.3,1.4,1.3,2.7s-.4,2.2-1.2,2.6M194.5,399.2c-1-2.2-1.8-3.7-2.4-4.4-.6-.7-1.3-1.4-2.2-1.9.8-.4,1.4-.8,2-1.3.6-.4,1.2-1.2,1.7-2.1.6-1,.8-2.2.8-3.6s-.3-2.5-1-3.9c-.7-1.4-1.7-2.5-3.2-3.5-1.5-.9-3.4-1.4-5.7-1.4h-14.4v28.2h8.5v-11h1c1,0,1.8.1,2.4.3.6.2,1.2.8,1.9,1.6.7.9,1.4,2.2,2.2,4l2.2,5h9.1l-2.8-6.1ZM155.3,395c-.6,1.1-1.4,1.9-2.5,2.6-1.1.6-2.4.9-4,.9-2.3,0-4.1-.7-5.4-2-1.3-1.3-2-3.1-2-5.2s.6-3.9,1.9-5.2c1.3-1.3,3.1-2,5.4-2s2.2.2,3.1.5c.9.4,1.7.9,2.3,1.5.6.6,1.1,1.4,1.4,2.3.3.9.5,1.8.5,2.9s-.3,2.7-.9,3.7M163.8,385.7c-.7-1.8-1.7-3.3-3-4.6-1.3-1.3-3-2.4-5-3.1-2-.8-4.4-1.2-7-1.2s-6.4.7-8.8,2c-2.4,1.3-4.2,3.1-5.4,5.3-1.2,2.2-1.8,4.6-1.8,7.1s.6,4.9,1.8,7.1c1.2,2.2,3,4,5.4,5.3,2.4,1.4,5.3,2,8.8,2s6.4-.6,8.7-1.9c2.4-1.3,4.2-3.1,5.4-5.3,1.2-2.2,1.8-4.6,1.8-7.2s-.3-3.8-1-5.5M127.6,377.2h-8.5v10.3h-12.8v-10.3h-8.5v28.2h8.5v-11h12.8v11h8.5v-28.2ZM83.1,395c-.6,1.1-1.4,1.9-2.5,2.6-1.1.6-2.4.9-4,.9-2.3,0-4-.7-5.3-2-1.3-1.3-2-3.1-2-5.2s.6-3.9,1.9-5.2c1.3-1.3,3.1-2,5.4-2s2.2.2,3.2.5c.9.4,1.7.9,2.3,1.5.6.6,1.1,1.4,1.4,2.3.3.9.5,1.8.5,2.9s-.3,2.7-.9,3.7M91.6,385.7c-.7-1.8-1.7-3.3-3-4.6-1.3-1.3-3-2.4-5-3.1-2-.8-4.4-1.2-7-1.2s-6.4.7-8.8,2c-2.4,1.3-4.2,3.1-5.4,5.3-1.2,2.2-1.7,4.6-1.7,7.1s.6,4.9,1.8,7.1c1.2,2.2,3,4,5.4,5.3,2.4,1.4,5.4,2,8.8,2s6.4-.6,8.8-1.9c2.4-1.3,4.2-3.1,5.4-5.3,1.2-2.2,1.8-4.6,1.8-7.2s-.3-3.8-1-5.5M55.4,377.2h-8.5v23.1c0,2.6,0,4.1-.2,4.7-.2.7-.5,1.2-.9,1.5-.4.3-1,.5-1.6.6-.7,0-1.6.2-2.6.2l1.3,6.8c1,.2,2,.3,3.1.3,2.8,0,4.8-.6,6.2-1.8,1.4-1.2,2.3-2.6,2.7-4.4.4-1.8.6-3.9.6-6.4v-24.7Z"/></g></svg>